<svg width="589" height="589" viewBox="0 0 589 589" fill="none" xmlns="http://www.w3.org/2000/svg">
<path d="M461.528 407.437C498.466 367.033 521 313.223 521 254.154C521 128.716 419.384 27 294 27C168.616 27 67 128.716 67 254.154C67 313.83 89.9987 368.137 127.614 408.677V408.898L133.382 414.67C133.449 414.738 133.517 414.805 133.584 414.873L134.052 415.341L270.725 552.117C283.893 565.294 305.249 565.294 318.416 552.117L318.449 552.085L318.481 552.052L455.155 414.131L461.528 407.7V407.437Z" fill="#0286FF" stroke="#030508" stroke-width="44"/>
<mask id="mask0_270_196" style="mask-type:alpha" maskUnits="userSpaceOnUse" x="89" y="49" width="410" height="491">
<path d="M439.528 254.725V398.645L302.854 536.566C298.279 541.145 290.862 541.145 286.288 536.566L149.614 399.79V254.725H439.528Z" fill="#0286FF"/>
<path d="M499 254.154C499 367.457 407.218 459.307 294 459.307C180.782 459.307 89 367.457 89 254.154C89 140.85 180.782 49 294 49C407.218 49 499 140.85 499 254.154Z" fill="#0286FF"/>
</mask>
<g mask="url(#mask0_270_196)">
<path d="M-9.74684 178.972C21.7896 165.293 68.8629 139.517 58.1526 188.277C47.4424 237.036 81.3378 295.246 104.901 301.234C128.465 307.221 206.674 313.438 202.14 338.22C197.606 363.003 166.678 372.265 192.879 383.404C219.079 394.543 257.995 402.489 243.645 423.313C229.296 444.138 188.985 477.518 215.524 478.106C242.064 478.694 269.352 441.497 289.855 432.694C310.357 423.89 368.449 356.365 337.476 346.314C306.503 336.263 264.943 304.729 243.522 310.939C222.102 317.149 93.8908 270.111 151.582 248.258C209.272 226.405 185.462 269.595 208.601 265.943C231.741 262.291 203.69 209.091 249.005 179.881C294.321 150.67 263.841 133.574 215.403 91.8065C166.965 50.0391 87.0602 96.5746 60.7516 101.244C39.7047 104.979 4.98311 154.619 -9.74684 178.972Z" fill="white"/>
<path d="M276.252 27.7878C267.2 45.4908 320.608 116.706 339.299 105.631C357.99 94.5566 404.957 42.4324 424.202 59.3756C443.447 76.3188 395.326 137.232 411.478 138.694C427.63 140.156 422.571 151.757 435.604 142.355C525.051 77.8284 458.681 178.795 456.884 198.704C455.086 218.613 421.179 214.216 433.149 231.165C445.119 248.114 427.77 289.418 447.135 293.09C466.501 296.761 460.648 318.148 455.705 328.474C450.761 338.801 356.471 397.124 388.689 409.633C517.809 615.724 460.948 374.184 484.589 352.046L555.091 65.1705L353.361 27.7267L276.252 27.7878Z" fill="white"/>
</g>
</svg>
