<?xml version="1.0" encoding="UTF-8"?><svg xmlns="http://www.w3.org/2000/svg" xmlns:xlink="http://www.w3.org/1999/xlink" width="135px" height="50px" viewBox="0 0 135 50" version="1.1"><g id="surface1"><path style=" stroke:none;fill-rule:nonzero;fill:rgb(100%,100%,100%);fill-opacity:1;" d="M 62.710938 0.628906 L 62.710938 25.058594 C 62.710938 30.210938 59.808594 35.652344 51.050781 35.652344 C 43.148438 35.652344 39.339844 31.546875 39.339844 25.058594 L 39.339844 0.628906 L 46.527344 0.628906 L 46.527344 24.582031 C 46.527344 28.828125 48.335938 30.496094 50.953125 30.496094 C 54.09375 30.496094 55.523438 28.398438 55.523438 24.582031 L 55.523438 0.628906 Z M 74.402344 35.652344 C 65.5 35.652344 63.835938 30.402344 64.214844 24.4375 L 71.402344 24.4375 C 71.402344 27.730469 71.546875 30.496094 75.496094 30.496094 C 77.921875 30.496094 79.113281 28.921875 79.113281 26.585938 C 79.113281 20.382812 64.644531 20 64.644531 9.742188 C 64.644531 4.351562 67.214844 0.0585938 75.972656 0.0585938 C 82.96875 0.0585938 86.445312 3.207031 85.96875 10.410156 L 78.96875 10.410156 C 78.96875 7.832031 78.542969 5.210938 75.636719 5.210938 C 73.304688 5.210938 71.925781 6.5 71.925781 8.882812 C 71.925781 15.421875 86.394531 14.847656 86.394531 25.679688 C 86.394531 34.601562 79.875 35.652344 74.402344 35.652344 Z M 122.722656 35.652344 C 113.820312 35.652344 112.15625 30.402344 112.535156 24.441406 L 119.722656 24.441406 C 119.722656 27.734375 119.867188 30.5 123.816406 30.5 C 126.246094 30.5 127.433594 28.925781 127.433594 26.585938 C 127.433594 20.386719 112.964844 20.003906 112.964844 9.746094 C 112.964844 4.351562 115.535156 0.0585938 124.292969 0.0585938 C 131.289062 0.0585938 134.761719 3.207031 134.289062 10.414062 L 127.292969 10.414062 C 127.292969 7.835938 126.863281 5.210938 123.960938 5.210938 C 121.625 5.210938 120.246094 6.5 120.246094 8.886719 C 120.246094 15.421875 134.714844 14.851562 134.714844 25.679688 C 134.714844 34.601562 128.195312 35.65625 122.722656 35.65625 Z M 99.828125 22.242188 L 104.054688 22.242188 L 104.054688 29.84375 L 103.703125 29.976562 C 102.609375 30.359375 101.324219 30.644531 100.136719 30.644531 C 96.039062 30.644531 94.992188 28.734375 94.992188 17.953125 C 94.992188 11.273438 94.992188 5.214844 99.46875 5.214844 C 102.949219 5.214844 103.683594 7.570312 103.746094 10.414062 L 110.90625 10.414062 C 110.964844 3.730469 106.667969 0.0625 99.894531 0.0625 C 88.140625 0.0625 87.710938 8.886719 87.710938 17.570312 C 87.710938 30.644531 89.125 35.71875 101.214844 35.71875 C 104.019531 35.71875 108.484375 35.082031 110.542969 34.515625 C 110.667969 34.484375 110.890625 34.34375 110.890625 34.167969 L 110.890625 17.046875 L 99.824219 17.046875 L 99.824219 22.242188 M 9.34375 12.164062 L 9.464844 12.28125 C 12.832031 15.109375 16.464844 14.835938 19.234375 12.988281 L 33.335938 3.589844 L 33.335938 0.617188 L 0.0820312 0.617188 L 0.0820312 8.464844 C 2.109375 8.113281 5.375 8.457031 9.34375 12.164062 Z M 21.855469 25.214844 L 17.925781 21.441406 C 17.375 20.9375 16.902344 20.566406 16.800781 20.488281 C 13.589844 18.226562 10.597656 18.914062 9.308594 19.394531 C 8.917969 19.550781 8.542969 19.765625 8.277344 19.933594 L 0.0820312 25.429688 L 0.0820312 35.386719 L 33.335938 35.386719 L 33.335938 28.21875 C 32.605469 28.683594 28.097656 31.125 21.851562 25.214844 Z M 9.050781 13.054688 C 8.871094 12.890625 8.675781 12.714844 8.5 12.570312 C 4.574219 9.523438 0.863281 11.015625 0.0820312 11.386719 L 0.0820312 14.8125 L 2.007812 13.515625 C 2.007812 13.515625 4.972656 11.308594 9.585938 13.570312 Z M 13.644531 17.484375 L 13.121094 17.003906 C 9.636719 14.050781 6.269531 14.800781 4.871094 15.320312 C 4.476562 15.480469 4.097656 15.695312 3.832031 15.863281 L 0.0820312 18.378906 L 0.0820312 21.90625 L 6.355469 17.671875 C 6.355469 17.671875 9.285156 15.492188 13.851562 17.6875 Z M 33.335938 21.179688 L 30.171875 23.316406 C 28.988281 24.109375 26.25 26.078125 21.695312 23.894531 L 22.230469 24.410156 C 22.429688 24.59375 22.675781 24.804688 22.941406 25.007812 C 26.214844 27.457031 29.710938 27.105469 32.332031 25.367188 L 33.339844 24.695312 L 33.339844 21.179688 Z M 33.339844 14.109375 L 25.863281 19.148438 C 24.679688 19.941406 21.902344 21.9375 17.441406 19.800781 L 17.960938 20.296875 L 18.136719 20.460938 L 18.132812 20.464844 L 18.136719 20.460938 C 21.597656 23.398438 25.410156 22.949219 28.023438 21.199219 L 33.339844 17.605469 L 33.335938 14.109375 Z M 33.335938 7.078125 L 21.578125 14.976562 C 20.382812 15.777344 17.570312 17.800781 13.167969 15.695312 L 13.703125 16.210938 C 14.023438 16.5 14.449219 16.859375 14.90625 17.15625 C 17.953125 19.109375 21.140625 18.761719 23.738281 17.027344 L 33.335938 10.625 Z M 1.777344 45.644531 C 1.707031 45.917969 1.660156 46.183594 1.703125 46.375 C 1.761719 46.570312 1.917969 46.667969 2.253906 46.667969 C 2.589844 46.667969 2.925781 46.449219 3.011719 46.039062 C 3.285156 44.753906 0.246094 45.039062 0.65625 43.101562 C 0.9375 41.789062 2.316406 41.390625 3.410156 41.390625 C 4.5625 41.390625 5.492188 41.945312 5.117188 43.257812 L 3.457031 43.257812 C 3.546875 42.835938 3.554688 42.585938 3.457031 42.476562 C 3.371094 42.367188 3.234375 42.34375 3.050781 42.34375 C 2.679688 42.34375 2.425781 42.585938 2.335938 42.992188 C 2.132812 43.957031 5.121094 43.910156 4.707031 45.859375 C 4.484375 46.917969 3.449219 47.714844 2.046875 47.714844 C 0.566406 47.714844 -0.335938 47.339844 0.117188 45.644531 Z M 9.023438 43.675781 C 9.214844 42.773438 9.050781 42.472656 8.519531 42.472656 C 7.800781 42.472656 7.605469 43.109375 7.335938 44.375 C 6.945312 46.226562 7.015625 46.625 7.640625 46.625 C 8.167969 46.625 8.523438 46.144531 8.691406 45.347656 L 10.382812 45.347656 C 10.035156 47 8.996094 47.710938 7.410156 47.710938 C 5.222656 47.710938 5.21875 46.371094 5.621094 44.472656 C 5.976562 42.808594 6.515625 41.390625 8.75 41.390625 C 10.3125 41.390625 11.054688 42.085938 10.714844 43.675781 Z M 14.292969 39.167969 L 14.007812 40.503906 L 12.316406 40.503906 L 12.597656 39.167969 Z M 12.507812 47.589844 L 10.8125 47.589844 L 12.101562 41.507812 L 13.796875 41.507812 L 12.507812 47.585938 Z M 93.546875 39.167969 L 93.261719 40.503906 L 91.566406 40.503906 L 91.851562 39.167969 Z M 91.757812 47.589844 L 90.066406 47.589844 L 91.355469 41.507812 L 93.046875 41.507812 L 91.757812 47.585938 Z M 17.523438 43.867188 C 17.648438 43.277344 17.851562 42.4375 17.046875 42.4375 C 16.265625 42.4375 16.082031 43.351562 15.972656 43.867188 Z M 15.773438 44.820312 C 15.621094 45.542969 15.414062 46.625 16.15625 46.625 C 16.757812 46.625 17 46.046875 17.109375 45.542969 L 18.824219 45.542969 C 18.660156 46.203125 18.332031 46.746094 17.84375 47.117188 C 17.367188 47.492188 16.722656 47.710938 15.929688 47.710938 C 13.742188 47.710938 13.738281 46.371094 14.140625 44.46875 C 14.492188 42.808594 15.035156 41.386719 17.269531 41.386719 C 19.550781 41.386719 19.488281 42.867188 19.015625 44.820312 Z M 22.210938 42.125 L 22.234375 42.125 C 22.683594 41.582031 23.183594 41.390625 23.820312 41.390625 C 24.625 41.390625 25.230469 41.871094 25.050781 42.714844 L 24.019531 47.589844 L 22.324219 47.589844 L 23.210938 43.402344 C 23.328125 42.859375 23.320312 42.4375 22.78125 42.4375 C 22.238281 42.4375 22.054688 42.859375 21.9375 43.402344 L 21.050781 47.589844 L 19.359375 47.589844 L 20.648438 41.511719 L 22.339844 41.511719 Z M 28.933594 43.675781 C 29.125 42.773438 28.960938 42.472656 28.433594 42.472656 C 27.714844 42.472656 27.519531 43.113281 27.25 44.375 C 26.855469 46.230469 26.929688 46.625 27.550781 46.625 C 28.082031 46.625 28.433594 46.144531 28.605469 45.351562 L 30.296875 45.351562 C 29.945312 47 28.910156 47.710938 27.320312 47.710938 C 25.136719 47.710938 25.132812 46.375 25.535156 44.472656 C 25.886719 42.8125 26.429688 41.390625 28.664062 41.390625 C 30.222656 41.390625 30.964844 42.089844 30.628906 43.679688 L 28.933594 43.679688 Z M 34.554688 43.871094 C 34.679688 43.28125 34.882812 42.4375 34.078125 42.4375 C 33.296875 42.4375 33.117188 43.355469 33.003906 43.871094 Z M 32.800781 44.820312 C 32.648438 45.542969 32.441406 46.628906 33.1875 46.628906 C 33.789062 46.628906 34.03125 46.046875 34.136719 45.542969 L 35.855469 45.542969 C 35.691406 46.207031 35.359375 46.746094 34.871094 47.121094 C 34.398438 47.492188 33.75 47.710938 32.957031 47.710938 C 30.769531 47.710938 30.765625 46.375 31.167969 44.472656 C 31.523438 42.8125 32.0625 41.390625 34.296875 41.390625 C 36.578125 41.390625 36.519531 42.871094 36.042969 44.820312 Z M 43.152344 40.253906 C 42.480469 40.207031 42.28125 40.472656 42.148438 41.085938 L 42.027344 41.511719 L 42.820312 41.511719 L 42.601562 42.558594 L 41.808594 42.558594 L 40.738281 47.59375 L 39.046875 47.59375 L 40.113281 42.558594 L 39.355469 42.558594 L 39.578125 41.511719 L 40.347656 41.511719 C 40.6875 39.992188 40.992188 39.148438 42.789062 39.148438 C 42.992188 39.148438 43.183594 39.160156 43.382812 39.171875 L 43.15625 40.253906 Z M 45.898438 44.375 C 46.164062 43.113281 46.242188 42.472656 45.519531 42.472656 C 44.800781 42.472656 44.605469 43.113281 44.335938 44.375 C 43.941406 46.230469 44.015625 46.628906 44.640625 46.628906 C 45.261719 46.628906 45.503906 46.230469 45.898438 44.375 Z M 42.621094 44.472656 C 42.972656 42.8125 43.515625 41.390625 45.75 41.390625 C 47.984375 41.390625 47.921875 42.8125 47.570312 44.472656 C 47.167969 46.375 46.59375 47.710938 44.410156 47.710938 C 42.222656 47.710938 42.214844 46.375 42.621094 44.472656 Z M 50.605469 41.511719 L 50.441406 42.292969 L 50.464844 42.292969 C 50.925781 41.59375 51.542969 41.390625 52.230469 41.390625 L 51.910156 42.90625 C 50.4375 42.8125 50.230469 43.675781 50.105469 44.28125 L 49.402344 47.589844 L 47.707031 47.589844 L 48.996094 41.511719 L 50.609375 41.511719 Z M 55.71875 45.699219 C 55.625 46.132812 55.585938 46.664062 56.136719 46.664062 C 57.132812 46.664062 57.265625 45.3125 57.40625 44.652344 C 56.558594 44.6875 55.949219 44.617188 55.71875 45.699219 Z M 58.683594 46.457031 C 58.601562 46.832031 58.570312 47.21875 58.527344 47.589844 L 56.953125 47.589844 L 57.050781 46.785156 L 57.027344 46.785156 C 56.535156 47.410156 55.976562 47.710938 55.246094 47.710938 C 54.066406 47.710938 53.824219 46.832031 54.046875 45.773438 C 54.472656 43.761719 56.039062 43.679688 57.609375 43.703125 L 57.707031 43.234375 C 57.820312 42.714844 57.824219 42.339844 57.210938 42.339844 C 56.625 42.339844 56.480469 42.785156 56.378906 43.269531 L 54.722656 43.269531 C 54.878906 42.535156 55.207031 42.066406 55.660156 41.789062 C 56.105469 41.5 56.683594 41.390625 57.332031 41.390625 C 59.480469 41.390625 59.558594 42.316406 59.324219 43.425781 L 58.679688 46.460938 Z M 65.386719 43.679688 C 65.578125 42.773438 65.414062 42.472656 64.886719 42.472656 C 64.164062 42.472656 63.96875 43.113281 63.699219 44.375 C 63.308594 46.230469 63.378906 46.628906 64.003906 46.628906 C 64.53125 46.628906 64.886719 46.144531 65.054688 45.351562 L 66.75 45.351562 C 66.398438 47 65.359375 47.710938 63.773438 47.710938 C 61.585938 47.710938 61.582031 46.375 61.984375 44.472656 C 62.339844 42.8125 62.878906 41.390625 65.113281 41.390625 C 66.675781 41.390625 67.417969 42.089844 67.078125 43.679688 Z M 74.6875 45.703125 C 74.59375 46.136719 74.554688 46.664062 75.105469 46.664062 C 76.101562 46.664062 76.234375 45.316406 76.371094 44.652344 C 75.523438 44.691406 74.914062 44.621094 74.683594 45.703125 Z M 77.648438 46.460938 C 77.566406 46.835938 77.535156 47.21875 77.492188 47.59375 L 75.917969 47.59375 L 76.015625 46.785156 L 75.992188 46.785156 C 75.5 47.414062 74.945312 47.714844 74.207031 47.714844 C 73.03125 47.714844 72.785156 46.835938 73.011719 45.777344 C 73.4375 43.765625 75.003906 43.679688 76.574219 43.707031 L 76.675781 43.234375 C 76.78125 42.714844 76.789062 42.34375 76.179688 42.34375 C 75.589844 42.34375 75.445312 42.789062 75.34375 43.269531 L 73.6875 43.269531 C 73.84375 42.535156 74.171875 42.066406 74.625 41.789062 C 75.074219 41.5 75.648438 41.390625 76.296875 41.390625 C 78.445312 41.390625 78.523438 42.320312 78.289062 43.425781 L 77.648438 46.464844 Z M 81.363281 42.128906 L 81.386719 42.128906 C 81.839844 41.585938 82.335938 41.394531 82.972656 41.394531 C 83.777344 41.394531 84.382812 41.875 84.207031 42.71875 L 83.171875 47.59375 L 81.476562 47.59375 L 82.367188 43.40625 C 82.480469 42.863281 82.476562 42.441406 81.9375 42.441406 C 81.394531 42.441406 81.210938 42.863281 81.09375 43.40625 L 80.203125 47.59375 L 78.511719 47.59375 L 79.800781 41.515625 L 81.496094 41.515625 L 81.367188 42.128906 Z M 86.707031 46.460938 C 87.320312 46.460938 87.539062 45.824219 87.808594 44.535156 C 88.09375 43.199219 88.195312 42.441406 87.570312 42.441406 C 86.933594 42.441406 86.730469 42.886719 86.335938 44.742188 C 86.214844 45.308594 85.890625 46.460938 86.707031 46.460938 Z M 90.144531 41.515625 L 88.800781 47.847656 C 88.710938 48.269531 88.382812 49.929688 86.054688 49.929688 C 84.792969 49.929688 83.78125 49.605469 84.058594 48.125 L 85.714844 48.125 C 85.664062 48.378906 85.652344 48.59375 85.730469 48.738281 C 85.804688 48.894531 85.980469 48.980469 86.242188 48.980469 C 86.664062 48.980469 86.953125 48.582031 87.082031 47.96875 L 87.332031 46.800781 L 87.304688 46.800781 C 86.953125 47.269531 86.421875 47.511719 85.871094 47.511719 C 84.007812 47.511719 84.453125 45.800781 84.746094 44.429688 C 85.03125 43.09375 85.414062 41.394531 87.179688 41.394531 C 87.78125 41.394531 88.242188 41.660156 88.359375 42.226562 L 88.382812 42.226562 L 88.535156 41.515625 L 90.148438 41.515625 Z M 95.8125 42.128906 L 95.839844 42.128906 C 96.289062 41.585938 96.789062 41.394531 97.421875 41.394531 C 98.230469 41.394531 98.835938 41.875 98.65625 42.71875 L 97.621094 47.597656 L 95.929688 47.597656 L 96.816406 43.40625 C 96.933594 42.863281 96.925781 42.441406 96.386719 42.441406 C 95.84375 42.441406 95.660156 42.863281 95.546875 43.40625 L 94.65625 47.597656 L 92.960938 47.597656 L 94.25 41.515625 L 95.945312 41.515625 L 95.816406 42.128906 Z M 101.15625 46.460938 C 101.769531 46.460938 101.988281 45.824219 102.261719 44.535156 C 102.542969 43.199219 102.644531 42.441406 102.019531 42.441406 C 101.382812 42.441406 101.179688 42.886719 100.789062 44.742188 C 100.671875 45.308594 100.339844 46.460938 101.15625 46.460938 Z M 104.597656 41.515625 L 103.253906 47.847656 C 103.164062 48.269531 102.835938 49.929688 100.503906 49.929688 C 99.242188 49.929688 98.230469 49.605469 98.511719 48.125 L 100.167969 48.125 C 100.113281 48.378906 100.105469 48.597656 100.179688 48.738281 C 100.257812 48.898438 100.429688 48.980469 100.695312 48.980469 C 101.117188 48.980469 101.402344 48.582031 101.535156 47.96875 L 101.78125 46.800781 L 101.757812 46.800781 C 101.40625 47.269531 100.875 47.511719 100.320312 47.511719 C 98.460938 47.511719 98.90625 45.800781 99.195312 44.429688 C 99.480469 43.09375 99.863281 41.394531 101.632812 41.394531 C 102.230469 41.394531 102.691406 41.660156 102.8125 42.226562 L 102.835938 42.226562 L 102.988281 41.515625 L 104.601562 41.515625 Z M 107.242188 41.515625 L 108.925781 41.515625 L 108.785156 46.089844 L 108.808594 46.089844 L 110.828125 41.515625 L 112.625 41.515625 L 112.648438 46.089844 L 112.671875 46.089844 L 114.519531 41.515625 L 116.140625 41.515625 L 113.261719 47.597656 L 111.488281 47.597656 L 111.3125 43.5625 L 111.289062 43.5625 L 109.261719 47.597656 L 107.460938 47.597656 L 107.238281 41.515625 Z M 119.070312 44.382812 C 119.339844 43.117188 119.414062 42.480469 118.695312 42.480469 C 117.972656 42.480469 117.777344 43.117188 117.507812 44.382812 C 117.117188 46.234375 117.1875 46.632812 117.8125 46.632812 C 118.433594 46.632812 118.675781 46.234375 119.066406 44.378906 Z M 115.792969 44.476562 C 116.144531 42.816406 116.683594 41.394531 118.917969 41.394531 C 121.152344 41.394531 121.09375 42.816406 120.742188 44.476562 C 120.335938 46.378906 119.765625 47.71875 117.578125 47.71875 C 115.394531 47.71875 115.386719 46.382812 115.792969 44.480469 Z M 123.871094 41.515625 L 123.703125 42.296875 L 123.730469 42.296875 C 124.191406 41.601562 124.808594 41.394531 125.496094 41.394531 L 125.171875 42.914062 C 123.703125 42.816406 123.496094 43.683594 123.367188 44.285156 L 122.667969 47.597656 L 120.972656 47.597656 L 122.261719 41.515625 Z M 71.597656 41.394531 C 70.960938 41.394531 70.460938 41.589844 70.011719 42.128906 L 69.988281 42.128906 L 70.613281 39.175781 L 68.917969 39.175781 L 67.132812 47.597656 L 68.828125 47.597656 L 69.71875 43.40625 C 69.832031 42.863281 70.015625 42.445312 70.558594 42.445312 C 71.097656 42.445312 71.105469 42.863281 70.992188 43.40625 L 70.101562 47.597656 L 71.792969 47.597656 L 72.828125 42.71875 C 73.003906 41.878906 72.402344 41.398438 71.597656 41.398438 Z M 126.695312 39.175781 L 124.910156 47.597656 L 126.605469 47.597656 L 128.390625 39.175781 Z M 131.222656 44.503906 C 130.898438 46.03125 130.65625 46.671875 130.078125 46.671875 C 129.46875 46.671875 129.496094 46.03125 129.816406 44.503906 C 130.078125 43.289062 130.242188 42.445312 130.976562 42.445312 C 131.671875 42.441406 131.480469 43.285156 131.222656 44.5 Z M 132.355469 39.171875 L 131.734375 42.09375 L 131.710938 42.09375 C 131.472656 41.574219 131.089844 41.394531 130.480469 41.394531 C 128.773438 41.394531 128.417969 43.285156 128.160156 44.511719 C 127.894531 45.761719 127.417969 47.714844 129.171875 47.714844 C 129.824219 47.714844 130.335938 47.507812 130.769531 46.917969 L 130.796875 46.917969 L 130.652344 47.59375 L 132.261719 47.59375 L 134.046875 39.171875 L 132.355469 39.171875 L 132.355469 39.167969 Z M 132.355469 39.171875 "/></g></svg>
